# xmcd CD database file generated by Grip 3.3.1
# 
# Track frame offsets:
#       150
#       26080
#       46265
#       56673
#       81473
#       92645
#       108640
#       141933
#       155533
#       168388
#       188000
#       206345
# 
# Disc length: 3028 seconds
# 
# Revision: 4
# Processed by: cddbd v1.5.2PL0 Copyright (c) Steve Scherf et al.
# Submitted via: Grip 3.3.1
# 
DISCID=a20bd20c
DTITLE=Iver Kleive, Knut Reiersrud - Himmelskip
DYEAR=1996
DGENRE=Blues
TTITLE0=Himmelskip
TTITLE1=Herre Gud, ditt dyre navn og ære
TTITLE2=Jesus Kristus er vår frelse
TTITLE3=Kirken, den er et gammelt hus
TTITLE4=På det store hav me siglar
TTITLE5=Et lite barn så lystelig
TTITLE6=I al sin glans nu stråler solen
TTITLE7=Fagert er landet
TTITLE8=Jesus, det eneste, helligste, reneste
TTITLE9=The ship is at the landing
TTITLE10=Om nogen ondt meg vil
TTITLE11=Landkjenning
EXTD=
EXTT0=
EXTT1=
EXTT2=
EXTT3=
EXTT4=
EXTT5=
EXTT6=
EXTT7=
EXTT8=
EXTT9=
EXTT10=
EXTT11=
PLAYORDER=
